<?xml version="1.0" encoding="UTF-8" standalone="no"?>
<svg xmlns="http://www.w3.org/2000/svg" width="80" height="80" viewBox="0 0 80 80">
  <style>
    @media (prefers-color-scheme: dark) {
      .logo-icon { fill: #4CAF50; }
      .logo-text { fill: #FFFFFF; }
    }
    @media (prefers-color-scheme: light) {
      .logo-icon { fill: #2E7D32; }
      .logo-text { fill: #1A202C; }
    }
  </style>
  <g>
    <!-- Logo Icon -->
    <path class="logo-icon" d="M40,10 C23.431,10 10,23.431 10,40 C10,56.569 23.431,70 40,70 C56.569,70 70,56.569 70,40 C70,23.431 56.569,10 40,10 Z M40,62 C27.85,62 18,52.15 18,40 C18,27.85 27.85,18 40,18 C52.15,18 62,27.85 62,40 C62,52.15 52.15,62 40,62 Z" />
    <path class="logo-icon" d="M40,28 L40,40 L52,40 C52,33.373 46.627,28 40,28 Z" />
    
    <!-- Small "E" for ENERGIX -->
    <path class="logo-text" d="M38,45 L42,45 L42,47 L38,47 Z" />
  </g>
</svg>
