<?xml version="1.0" encoding="UTF-8" standalone="no"?>
<svg xmlns="http://www.w3.org/2000/svg" width="320" height="80" viewBox="0 0 320 80">
  <style>
    @media (prefers-color-scheme: dark) {
      .logo-icon { fill: #4CAF50; }
      .logo-text { fill: #FFFFFF; }
      .logo-subtext { fill: #81C784; }
    }
    @media (prefers-color-scheme: light) {
      .logo-icon { fill: #2E7D32; }
      .logo-text { fill: #1A202C; }
      .logo-subtext { fill: #2E7D32; }
    }
  </style>
  <g>
    <!-- Logo Icon -->
    <path class="logo-icon" d="M30,15 C16.745,15 6,25.745 6,39 C6,52.255 16.745,63 30,63 C43.255,63 54,52.255 54,39 C54,25.745 43.255,15 30,15 Z M30,57 C20.059,57 12,48.941 12,39 C12,29.059 20.059,21 30,21 C39.941,21 48,29.059 48,39 C48,48.941 39.941,57 30,57 Z" />
    <path class="logo-icon" d="M30,27 L30,39 L42,39 C42,32.373 36.627,27 30,27 Z" />
    
    <!-- Company Name -->
    <path class="logo-text" d="M70,30.7c-1.1-0.7-2.4-1-3.9-1c-1.9,0-3.5,0.6-4.8,1.9c-1.3,1.3-1.9,2.9-1.9,4.8c0,1.9,0.6,3.5,1.9,4.8c1.3,1.3,2.9,1.9,4.8,1.9c1.5,0,2.8-0.3,3.9-1v-3.8h-4.5v-2.5h7.5v8c-1.8,1.3-4,2-6.8,2c-2.9,0-5.3-0.9-7.2-2.8c-1.9-1.9-2.9-4.2-2.9-7c0-2.8,1-5.1,2.9-7c1.9-1.9,4.3-2.8,7.2-2.8c2.8,0,5,0.7,6.8,2V30.7z"/>
    <path class="logo-text" d="M89.4,44.8c-1.9,1.9-4.3,2.8-7.2,2.8c-2.9,0-5.3-0.9-7.2-2.8c-1.9-1.9-2.9-4.2-2.9-7c0-2.8,1-5.1,2.9-7c1.9-1.9,4.3-2.8,7.2-2.8c2.9,0,5.3,0.9,7.2,2.8c1.9,1.9,2.9,4.2,2.9,7C92.3,40.6,91.3,42.9,89.4,44.8z M77.4,42.4c1.3,1.3,2.9,1.9,4.8,1.9c1.9,0,3.5-0.6,4.8-1.9c1.3-1.3,1.9-2.9,1.9-4.8c0-1.9-0.6-3.5-1.9-4.8c-1.3-1.3-2.9-1.9-4.8-1.9c-1.9,0-3.5,0.6-4.8,1.9c-1.3,1.3-1.9,2.9-1.9,4.8C75.5,39.5,76.1,41.1,77.4,42.4z"/>
    <path class="logo-text" d="M95.6,26.5h3v18.5h10.2v2.5H95.6V26.5z"/>
    <path class="logo-text" d="M111.5,26.5h3v21h-3V26.5z"/>
    <path class="logo-text" d="M133.4,44.8c-1.9,1.9-4.3,2.8-7.2,2.8c-2.9,0-5.3-0.9-7.2-2.8c-1.9-1.9-2.9-4.2-2.9-7c0-2.8,1-5.1,2.9-7c1.9-1.9,4.3-2.8,7.2-2.8c2.9,0,5.3,0.9,7.2,2.8c1.9,1.9,2.9,4.2,2.9,7C136.3,40.6,135.3,42.9,133.4,44.8z M121.4,42.4c1.3,1.3,2.9,1.9,4.8,1.9c1.9,0,3.5-0.6,4.8-1.9c1.3-1.3,1.9-2.9,1.9-4.8c0-1.9-0.6-3.5-1.9-4.8c-1.3-1.3-2.9-1.9-4.8-1.9c-1.9,0-3.5,0.6-4.8,1.9c-1.3,1.3-1.9,2.9-1.9,4.8C119.5,39.5,120.1,41.1,121.4,42.4z"/>
    <path class="logo-text" d="M139.5,26.5h3l9.2,16.1V26.5h3v21h-3l-9.2-16.1v16.1h-3V26.5z"/>
    <path class="logo-text" d="M158.5,26.5h13.2V29h-10.2v6.5h9.2v2.5h-9.2v7h10.2v2.5h-13.2V26.5z"/>
    
    <!-- Divider -->
    <rect class="logo-icon" x="180" y="26.5" width="2" height="21" rx="1" />
    
    <!-- App Name: COFICAB ENERGIX DASHBOARD -->
    <path class="logo-subtext" d="M195,32.5h9.8v2.3h-7.3v4.4h6.5v2.3h-6.5v4.6h7.3v2.3h-9.8V32.5z"/>
    <path class="logo-subtext" d="M207.2,32.5h2.5l7.8,11.6V32.5h2.5v15.9h-2.5l-7.8-11.6v11.6h-2.5V32.5z"/>
    <path class="logo-subtext" d="M223.1,32.5h9.8v2.3h-7.3v4.4h6.5v2.3h-6.5v4.6h7.3v2.3h-9.8V32.5z"/>
    <path class="logo-subtext" d="M235.3,32.5h5.8c1.7,0,3,0.4,3.9,1.2c0.9,0.8,1.4,2,1.4,3.5c0,1.1-0.3,2-0.8,2.7c-0.5,0.7-1.3,1.2-2.2,1.4l3.4,7.1h-2.8l-3-6.6h-3.2v6.6h-2.5V32.5z M240.9,39.4c0.9,0,1.6-0.2,2.1-0.6c0.5-0.4,0.7-1,0.7-1.7c0-0.7-0.2-1.3-0.7-1.7c-0.5-0.4-1.2-0.6-2.1-0.6h-3.1v4.6H240.9z"/>
    <path class="logo-subtext" d="M249.2,40.5c0-2.4,0.8-4.3,2.5-5.9c1.7-1.5,3.7-2.3,6.1-2.3c2.4,0,4.4,0.8,6.1,2.3c1.7,1.5,2.5,3.5,2.5,5.9c0,2.4-0.8,4.3-2.5,5.9c-1.7,1.5-3.7,2.3-6.1,2.3c-2.4,0-4.4-0.8-6.1-2.3C250,44.8,249.2,42.8,249.2,40.5z M251.8,40.5c0,1.7,0.6,3.1,1.7,4.2c1.1,1.1,2.5,1.7,4.2,1.7c1.7,0,3.1-0.6,4.2-1.7c1.1-1.1,1.7-2.5,1.7-4.2c0-1.7-0.6-3.1-1.7-4.2c-1.1-1.1-2.5-1.7-4.2-1.7c-1.7,0-3.1,0.6-4.2,1.7C252.4,37.4,251.8,38.8,251.8,40.5z"/>
    <path class="logo-subtext" d="M268.8,32.5h2.5v15.9h-2.5V32.5z"/>
    <path class="logo-subtext" d="M274.3,32.5h2.7l8.6,11.9V32.5h2.5v15.9h-2.5l-8.8-12.1v12.1h-2.5V32.5z"/>
    
    <!-- DASHBOARD -->
    <path class="logo-subtext" d="M195,55h2.8c1.3,0,2.3,0.3,3,0.9c0.7,0.6,1.1,1.5,1.1,2.6c0,1.1-0.4,2-1.1,2.6c-0.7,0.6-1.7,0.9-3,0.9h-1v3h-1.8V55z M197.7,60.2c0.7,0,1.2-0.2,1.6-0.5c0.4-0.3,0.5-0.7,0.5-1.3c0-0.5-0.2-1-0.5-1.3c-0.4-0.3-0.9-0.5-1.6-0.5h-0.8v3.5H197.7z"/>
    <path class="logo-subtext" d="M204.3,55h1.8l3.9,10h-2l-0.8-2.1h-3.9l-0.8,2.1h-2L204.3,55z M206.5,61.2l-1.3-3.5l-1.3,3.5H206.5z"/>
    <path class="logo-subtext" d="M211.5,55h2.8c1.1,0,2,0.1,2.6,0.4c0.6,0.3,1.1,0.7,1.5,1.3c0.4,0.6,0.5,1.3,0.5,2.1c0,0.8-0.2,1.5-0.5,2.1c-0.4,0.6-0.8,1-1.5,1.3c-0.6,0.3-1.5,0.4-2.6,0.4h-1v2.5h-1.8V55z M214.2,60.8c0.7,0,1.3-0.1,1.6-0.4c0.4-0.3,0.5-0.7,0.5-1.3c0-0.6-0.2-1-0.5-1.3c-0.4-0.3-0.9-0.4-1.6-0.4h-0.9v3.4H214.2z"/>
    <path class="logo-subtext" d="M220.9,55h1.8v10h-1.8V55z"/>
    <path class="logo-subtext" d="M225.1,55h1.8l5.3,7.4V55h1.8v10h-1.8l-5.3-7.4v7.4h-1.8V55z"/>
    <path class="logo-subtext" d="M236.7,55h4.8c0.8,0,1.5,0.1,2,0.4c0.5,0.3,0.9,0.6,1.2,1.1c0.3,0.5,0.4,1,0.4,1.6c0,0.6-0.1,1.1-0.4,1.6c-0.3,0.5-0.7,0.8-1.2,1.1c-0.5,0.3-1.2,0.4-2,0.4h-3v3.8h-1.8V55z M241.3,59.4c0.5,0,0.9-0.1,1.2-0.4c0.3-0.2,0.4-0.6,0.4-1c0-0.4-0.1-0.7-0.4-1c-0.3-0.2-0.7-0.4-1.2-0.4h-2.8v2.7H241.3z"/>
    <path class="logo-subtext" d="M247.1,60c0-1.5,0.5-2.7,1.6-3.7c1.1-1,2.4-1.4,4-1.4c1.6,0,2.9,0.5,4,1.4c1.1,1,1.6,2.2,1.6,3.7c0,1.5-0.5,2.7-1.6,3.7c-1.1,1-2.4,1.4-4,1.4c-1.6,0-2.9-0.5-4-1.4C247.6,62.7,247.1,61.5,247.1,60z M248.9,60c0,1,0.3,1.9,1,2.5c0.7,0.7,1.5,1,2.6,1c1.1,0,1.9-0.3,2.6-1c0.7-0.7,1-1.5,1-2.5c0-1-0.3-1.9-1-2.5c-0.7-0.7-1.5-1-2.6-1c-1.1,0-1.9,0.3-2.6,1C249.3,58.1,248.9,59,248.9,60z"/>
    <path class="logo-subtext" d="M260.6,55h1.8l3.9,10h-2l-0.8-2.1h-3.9l-0.8,2.1h-2L260.6,55z M262.8,61.2l-1.3-3.5l-1.3,3.5H262.8z"/>
    <path class="logo-subtext" d="M267.8,55h5.3c0.8,0,1.4,0.2,1.9,0.7c0.5,0.5,0.7,1,0.7,1.7c0,0.5-0.1,0.9-0.4,1.3c-0.3,0.4-0.6,0.6-1.1,0.7c0.5,0.1,0.9,0.4,1.3,0.8c0.3,0.4,0.5,0.9,0.5,1.4c0,0.7-0.3,1.3-0.8,1.8c-0.5,0.5-1.2,0.7-2,0.7h-5.4V55z M272.8,59c0.5,0,0.9-0.1,1.2-0.4c0.3-0.3,0.4-0.6,0.4-1c0-0.4-0.1-0.7-0.4-1c-0.3-0.2-0.7-0.4-1.2-0.4h-3.2V59H272.8z M273.1,63.4c0.6,0,1-0.1,1.3-0.4c0.3-0.3,0.5-0.7,0.5-1.1c0-0.4-0.2-0.8-0.5-1.1c-0.3-0.3-0.8-0.4-1.3-0.4h-3.5v3.1H273.1z"/>
    <path class="logo-subtext" d="M278.2,55h1.8v10h-1.8V55z"/>
  </g>
</svg>
